HIERARCHY
ROOT Pelvis
{
	OFFSET 0.000000 0.000000 0.000000
	CHANNELS 6 Xposition Yposition Zposition Xrotation Yrotation Zrotation
	JOINT LeftUpLeg_virtual
	{
		OFFSET 0.000000 0.000000 0.000000
		CHANNELS 3 Xrotation Yrotation Zrotation
		JOINT LeftUpLeg
		{
			OFFSET 18.735201 -5.666702 -4.541200
			CHANNELS 3 Xrotation Yrotation Zrotation
			JOINT LeftLeg
			{
				OFFSET -0.021200 -31.938179 0.493100
				CHANNELS 3 Xrotation Yrotation Zrotation
				JOINT LeftFoot
				{
					OFFSET 0.021200 -31.938179 -4.336299
					CHANNELS 3 Xrotation Yrotation Zrotation
					JOINT LeftToeBase
					{
						OFFSET 0.943001 -26.722000 15.023500
						CHANNELS 3 Xrotation Yrotation Zrotation
						End Site
						{
							OFFSET 0 0 0
						}
					}
				}
			}
		}
	}
	JOINT RightUpLeg_virtual
	{
		OFFSET 0.000000 0.000000 0.000000
		CHANNELS 3 Xrotation Yrotation Zrotation
		JOINT RightUpLeg
		{
			OFFSET -18.735201 -5.666702 -4.541200
			CHANNELS 3 Xrotation Yrotation Zrotation
			JOINT RightLeg
			{
				OFFSET 0.018946 -31.938133 0.493100
				CHANNELS 3 Xrotation Yrotation Zrotation
				JOINT RightFoot
				{
					OFFSET -0.018946 -31.938126 -4.336299
					CHANNELS 3 Xrotation Yrotation Zrotation
					JOINT RightToeBase
					{
						OFFSET -0.943001 -26.722004 15.023500
						CHANNELS 3 Xrotation Yrotation Zrotation
						End Site
						{
							OFFSET 0 0 0
						}
					}
				}
			}
		}
	}
	JOINT Hips_virtual
	{
		OFFSET 0.000000 0.000000 0.000000
		CHANNELS 3 Xrotation Yrotation Zrotation
		JOINT Hips
		{
			OFFSET -0.000000 -0.000000 -0.000000
			CHANNELS 3 Xrotation Yrotation Zrotation
			JOINT Spine
			{
				OFFSET 0.000000 10.199997 -0.299500
				CHANNELS 3 Xrotation Yrotation Zrotation
				JOINT Spine1
				{
					OFFSET 0.000000 11.900002 -1.516600
					CHANNELS 3 Xrotation Yrotation Zrotation
					JOINT Spine2
					{
						OFFSET 0.000000 13.600006 -2.842500
						CHANNELS 3 Xrotation Yrotation Zrotation
						JOINT Neck_virtual
						{
							OFFSET 0.000000 0.000000 0.000000
							CHANNELS 3 Xrotation Yrotation Zrotation
							JOINT Neck
							{
								OFFSET 0.000000 9.624100 -2.890100
								CHANNELS 3 Xrotation Yrotation Zrotation
								JOINT Head
								{
									OFFSET 0.000000 14.068802 -1.351900
									CHANNELS 3 Xrotation Yrotation Zrotation
									End Site
									{
										OFFSET 0 0 0
									}
								}
							}
						}
						JOINT LeftShoulder_virtual
						{
							OFFSET 0.000000 0.000000 0.000000
							CHANNELS 3 Xrotation Yrotation Zrotation
							JOINT LeftShoulder
							{
								OFFSET 15.263000 10.923401 -0.547700
								CHANNELS 3 Xrotation Yrotation Zrotation
								JOINT LeftArm
								{
									OFFSET 25.438599 -2.830597 -13.032500
									CHANNELS 3 Xrotation Yrotation Zrotation
									JOINT LeftForeArm
									{
										OFFSET 29.960503 0.000000 0.000000
										CHANNELS 3 Xrotation Yrotation Zrotation
										JOINT LeftHand
										{
											OFFSET 27.849251 0.000000 0.000000
											CHANNELS 3 Xrotation Yrotation Zrotation
											End Site
											{
												OFFSET 0 0 0
											}
										}
									}
								}
							}
						}
						JOINT RightShoulder_virtual
						{
							OFFSET 0.000000 0.000000 0.000000
							CHANNELS 3 Xrotation Yrotation Zrotation
							JOINT RightShoulder
							{
								OFFSET -15.263000 10.923401 -0.547700
								CHANNELS 3 Xrotation Yrotation Zrotation
								JOINT RightArm
								{
									OFFSET -25.438599 -2.830597 -13.032500
									CHANNELS 3 Xrotation Yrotation Zrotation
									JOINT RightForeArm
									{
										OFFSET -29.960503 0.000000 0.000000
										CHANNELS 3 Xrotation Yrotation Zrotation
										JOINT RightHand
										{
											OFFSET -27.849251 0.000000 0.000000
											CHANNELS 3 Xrotation Yrotation Zrotation
											End Site
											{
												OFFSET 0 0 0
											}
										}
									}
								}
							}
						}
					}
				}
			}
		}
	}
}
MOTION
Frames: 12
Frame Time: 0.03333333
0.635025 93.195152 10.383490 0.000000 0.000000 0.000000 -30.528179 -35.308198 -19.109703 -1.341097 11.471692 2.905021 37.052629 -1.257567 -3.145655 -12.483197 5.903566 3.845010 0.000000 0.000000 0.000000 -30.528179 -35.308198 -19.109703 17.468004 -9.527970 -9.093757 28.378111 6.567937 -4.612819 -19.867446 -13.651022 5.753506 0.000000 0.000000 0.000000 -30.528179 -35.308198 -19.109703 0.000001 0.000001 -0.000001 11.169419 -4.803068 -0.947183 3.545658 -2.400649 -0.151373 0.000000 0.000000 0.000000 3.557022 -2.388382 -0.108336 0.560778 0.137058 -0.321717 0.000000 0.000000 0.000000 3.557022 -2.388382 -0.108336 0.566133 -16.514901 -10.358597 -20.119403 4.477984 -37.028709 -0.000074 -67.657081 -0.000078 0.000000 0.000000 0.000000 3.557022 -2.388382 -0.108336 0.045597 14.239524 15.204264 -11.558841 -5.458993 60.927418 0.000003 39.374077 0.000012 0.000000 0.000000 0.000000 
1.294754 93.236229 10.977972 0.000000 0.000000 0.000000 -31.434317 -37.360035 -20.655751 -0.047417 12.515538 2.344105 35.812253 -1.418982 -4.237253 -12.746642 7.258529 7.043902 0.000000 0.000000 0.000000 -31.434317 -37.360035 -20.655751 16.578703 -8.655622 -9.484378 28.160388 5.809848 -5.664480 -18.604788 -12.509198 7.300986 0.000000 0.000000 0.000000 -31.434317 -37.360035 -20.655751 -0.000002 -0.000001 -0.000000 11.170691 -4.806044 -0.931983 3.545659 -2.400644 -0.151372 0.000000 0.000000 0.000000 3.557021 -2.388382 -0.108335 0.549059 0.131280 -0.301031 0.000000 0.000000 0.000000 3.557021 -2.388382 -0.108335 0.571848 -16.587581 -10.332635 -20.150643 4.605157 -37.056498 0.000028 -67.693103 0.000039 0.000000 0.000000 0.000000 3.557021 -2.388382 -0.108335 0.025379 14.173680 15.395888 -11.518552 -5.405245 60.741453 0.000007 39.512801 -0.000013 0.000000 0.000000 0.000000 
1.972149 93.239334 11.491358 0.000000 0.000000 0.000000 -32.439044 -39.395199 -22.281704 0.449407 13.157548 1.822269 35.533615 -2.053706 -5.126390 -13.077719 9.534348 9.685358 0.000000 0.000000 0.000000 -32.439044 -39.395199 -22.281704 15.398701 -8.160726 -10.057162 28.580413 4.777607 -6.126803 -17.278550 -12.500299 8.400688 0.000000 0.000000 0.000000 -32.439044 -39.395199 -22.281704 0.000001 0.000002 -0.000000 11.171295 -4.806607 -0.924662 3.545658 -2.400645 -0.151373 0.000000 0.000000 0.000000 3.557022 -2.388383 -0.108336 0.525198 0.130874 -0.300199 0.000000 0.000000 0.000000 3.557022 -2.388383 -0.108336 0.579612 -16.606963 -10.288916 -19.994001 4.524803 -36.978613 -0.000025 -67.695193 -0.000028 0.000000 0.000000 0.000000 3.557022 -2.388383 -0.108336 0.007982 14.220991 15.529859 -11.429882 -5.404810 60.569974 0.000036 39.667194 -0.000030 0.000000 0.000000 0.000000 
2.612707 93.249413 12.010801 0.000000 0.000000 0.000000 -33.550647 -41.406669 -24.001109 1.239967 13.657774 1.248582 35.058599 -2.877300 -5.825325 -14.247958 12.115882 11.747992 0.000000 0.000000 0.000000 -33.550647 -41.406669 -24.001109 14.149066 -8.107121 -10.719779 29.153023 4.891802 -6.122765 -15.745227 -14.817107 8.784878 0.000000 0.000000 0.000000 -33.550647 -41.406669 -24.001109 0.000000 -0.000001 0.000000 11.171661 -4.806154 -0.920198 3.545660 -2.400647 -0.151373 0.000000 0.000000 0.000000 3.557021 -2.388377 -0.108335 0.496879 0.141400 -0.323982 0.000000 0.000000 0.000000 3.557021 -2.388377 -0.108335 0.581072 -16.531949 -10.273113 -19.827078 4.304712 -36.893851 0.000009 -67.649151 0.000012 0.000000 0.000000 0.000000 3.557021 -2.388377 -0.108335 0.004874 14.295182 15.534099 -11.379694 -5.432802 60.532080 -0.000021 39.716741 0.000022 0.000000 0.000000 0.000000 
3.160992 93.298981 12.597885 0.000000 0.000000 0.000000 -34.778135 -43.387445 -25.830947 2.191917 14.185112 0.838727 34.334364 -3.591702 -6.372954 -15.221403 14.574174 12.939344 0.000000 0.000000 0.000000 -34.778135 -43.387445 -25.830947 12.388621 -8.134972 -10.380745 30.528931 6.006882 -6.004131 -14.927638 -19.029035 7.267293 0.000000 0.000000 0.000000 -34.778135 -43.387445 -25.830947 -0.000002 -0.000001 -0.000000 11.172457 -4.805441 -0.910923 3.545658 -2.400647 -0.151373 0.000000 0.000000 0.000000 3.557022 -2.388380 -0.108335 0.476862 0.156668 -0.355910 0.000000 0.000000 0.000000 3.557022 -2.388380 -0.108335 0.586137 -16.366132 -10.226847 -19.851636 4.116405 -37.021162 0.000016 -67.544711 0.000017 0.000000 0.000000 0.000000 3.557022 -2.388380 -0.108335 0.003390 14.360929 15.529847 -11.341095 -5.462496 60.508905 -0.000001 39.752596 0.000003 0.000000 0.000000 0.000000 
3.585964 93.376358 13.214141 0.000000 0.000000 0.000000 -36.130342 -45.329367 -27.785865 3.288466 14.796377 0.565102 33.686350 -2.017816 -6.746819 -15.950913 14.690231 13.209243 0.000000 0.000000 0.000000 -36.130342 -45.329367 -27.785865 10.230808 -8.164281 -9.278377 33.105186 2.517756 -6.054798 -16.310130 -18.283310 5.551476 0.000000 0.000000 0.000000 -36.130342 -45.329367 -27.785865 0.000000 0.000000 0.000000 11.174094 -4.806620 -0.891337 3.545658 -2.400647 -0.151374 0.000000 0.000000 0.000000 3.557021 -2.388383 -0.108335 0.471476 0.167851 -0.377726 0.000000 0.000000 0.000000 3.557021 -2.388383 -0.108335 0.600053 -16.178608 -10.123243 -20.038964 4.037608 -37.343889 0.000027 -67.415504 0.000037 0.000000 0.000000 0.000000 3.557021 -2.388383 -0.108335 -0.008663 14.407509 15.620933 -11.242553 -5.415470 60.366674 0.000009 39.865041 -0.000015 0.000000 0.000000 0.000000 
3.910877 93.455292 13.780670 0.000000 0.000000 0.000000 -37.621816 -47.230608 -29.869063 4.385625 15.424685 0.349744 33.053843 -0.272599 -7.081579 -16.614350 14.600906 13.280820 0.000000 0.000000 0.000000 -37.621816 -47.230608 -29.869063 7.736142 -8.431834 -7.822782 36.504492 0.324224 -5.877560 -17.418850 -16.607485 2.932250 0.000000 0.000000 0.000000 -37.621816 -47.230608 -29.869063 0.000003 0.000001 -0.000000 11.175637 -4.807545 -0.872868 3.545659 -2.400646 -0.151372 0.000000 0.000000 0.000000 3.557022 -2.388383 -0.108336 0.474939 0.172808 -0.385542 0.000000 0.000000 0.000000 3.557022 -2.388383 -0.108336 0.608275 -16.057867 -10.059853 -20.202327 4.019564 -37.580063 0.000011 -67.332831 0.000025 0.000000 0.000000 0.000000 3.557022 -2.388383 -0.108336 -0.021358 14.391723 15.735463 -11.108960 -5.227254 60.183399 -0.000001 39.961374 0.000013 0.000000 0.000000 0.000000 
4.183571 93.508636 14.235437 0.000000 0.000000 0.000000 -39.270442 -49.089871 -32.085029 5.361196 15.937026 0.264855 32.525993 1.456267 -7.577075 -17.244626 14.553907 13.314204 0.000000 0.000000 0.000000 -39.270442 -49.089871 -32.085029 5.580052 -9.232181 -6.473080 39.961459 -0.544168 -5.408496 -17.800803 -14.872708 0.062008 0.000000 0.000000 0.000000 -39.270442 -49.089871 -32.085029 -0.000001 -0.000001 -0.000000 11.175980 -4.804764 -0.868925 3.545658 -2.400645 -0.151373 0.000000 0.000000 0.000000 3.557022 -2.388381 -0.108336 0.475544 0.174853 -0.386472 0.000000 0.000000 0.000000 3.557022 -2.388381 -0.108336 0.593602 -16.031490 -10.148308 -20.271569 4.012371 -37.544119 0.000038 -67.336021 0.000030 0.000000 0.000000 0.000000 3.557022 -2.388381 -0.108336 -0.017894 14.282145 15.743528 -11.067276 -4.992258 60.152445 0.000011 39.902173 -0.000008 0.000000 0.000000 0.000000 
4.421059 93.511269 14.553024 0.000000 0.000000 0.000000 -41.099089 -50.906523 -34.441591 6.134565 16.336503 0.337432 32.251743 3.202547 -8.242741 -17.884814 14.509624 13.293383 0.000000 0.000000 0.000000 -41.099089 -50.906523 -34.441591 4.621629 -10.556957 -5.584594 42.659091 -2.037251 -4.725150 -18.063798 -13.505684 -2.274318 0.000000 0.000000 0.000000 -41.099089 -50.906523 -34.441591 -0.000002 -0.000001 -0.000000 11.173839 -4.793275 -0.894475 3.545658 -2.400646 -0.151373 0.000000 0.000000 0.000000 3.557022 -2.388384 -0.108335 0.468642 0.177477 -0.389647 0.000000 0.000000 0.000000 3.557022 -2.388384 -0.108335 0.560066 -16.038138 -10.355852 -20.352229 4.023115 -37.374556 -0.000041 -67.382924 -0.000037 0.000000 0.000000 0.000000 3.557022 -2.388384 -0.108335 -0.000487 14.137516 15.641446 -11.182420 -4.907279 60.317168 0.000003 39.719346 -0.000011 0.000000 0.000000 0.000000 
4.602383 93.454903 14.743460 0.000000 0.000000 0.000000 -43.123936 -52.669778 -36.965554 6.664593 16.657409 0.508977 32.370135 5.018110 -8.871736 -18.584176 14.458576 13.077481 0.000000 0.000000 0.000000 -43.123936 -52.669778 -36.965554 5.375904 -12.105262 -5.591881 44.099612 -5.294802 -3.809428 -18.673959 -12.918481 -3.254193 0.000000 0.000000 0.000000 -43.123936 -52.669778 -36.965554 0.000000 0.000000 0.000001 11.170128 -4.773910 -0.939124 3.545659 -2.400646 -0.151372 0.000000 0.000000 0.000000 3.557023 -2.388381 -0.108335 0.460309 0.182054 -0.401185 0.000000 0.000000 0.000000 3.557023 -2.388381 -0.108335 0.530228 -16.001844 -10.535901 -20.517677 4.048752 -37.315629 -0.000010 -67.399337 0.000003 0.000000 0.000000 0.000000 3.557023 -2.388381 -0.108335 0.015152 14.071201 15.527180 -11.349653 -5.026754 60.523365 0.000011 39.572801 -0.000004 0.000000 0.000000 0.000000 
4.699930 93.346489 14.862347 0.000000 0.000000 0.000000 -45.364597 -54.370635 -39.681009 7.013303 16.873240 0.664966 32.873263 6.979204 -9.309557 -19.363590 14.427853 12.565613 0.000000 0.000000 0.000000 -45.364597 -54.370635 -39.681009 7.218085 -13.759505 -5.852507 44.608768 -6.061753 -2.779393 -19.754978 -16.048807 -4.513379 0.000000 0.000000 0.000000 -45.364597 -54.370635 -39.681009 0.000002 0.000000 0.000000 11.165192 -4.745487 -0.998632 3.545659 -2.400647 -0.151373 0.000000 0.000000 0.000000 3.557022 -2.388382 -0.108336 0.460828 0.189581 -0.423560 0.000000 0.000000 0.000000 3.557022 -2.388382 -0.108336 0.516011 -15.929485 -10.617572 -20.678422 4.051665 -37.374088 -0.000010 -67.374550 0.000003 0.000000 0.000000 0.000000 3.557022 -2.388382 -0.108336 0.022865 14.127351 15.445124 -11.430588 -5.204987 60.643201 0.000000 39.530765 0.000000 0.000000 0.000000 0.000000 
4.704899 93.224129 14.960979 0.000000 0.000000 0.000000 -47.833877 -55.994567 -42.612556 7.336116 17.060742 0.768374 33.499452 8.829931 -9.579158 -20.179843 14.592426 11.894166 0.000000 0.000000 0.000000 -47.833877 -55.994567 -42.612556 9.355170 -15.399689 -5.946218 44.295081 -6.908409 -1.699118 -20.745943 -18.744228 -5.436290 0.000000 0.000000 0.000000 -47.833877 -55.994567 -42.612556 0.000001 0.000000 0.000000 11.160018 -4.711864 -1.061568 3.545659 -2.400648 -0.151372 0.000000 0.000000 0.000000 3.557021 -2.388383 -0.108336 0.475039 0.201056 -0.454079 0.000000 0.000000 0.000000 3.557021 -2.388383 -0.108336 0.504230 -15.898281 -10.688169 -20.708034 4.012110 -37.329446 0.000018 -67.370869 0.000036 0.000000 0.000000 0.000000 3.557021 -2.388383 -0.108336 0.030435 14.232361 15.350997 -11.438106 -5.321543 60.724869 0.000014 39.506955 -0.000025 0.000000 0.000000 0.000000 
